<?xml version="1.0" encoding="iso-8859-1"?>
<!DOCTYPE svg PUBLIC "-//W3C//DTD SVG 1.1//EN" 
  "http://www.w3.org/Graphics/SVG/1.1/DTD/svg11.dtd">

<svg xmlns="http://www.w3.org/2000/svg" version="1.1" viewBox="0 0 14 53" width="14" height="53">
  
  <path id="waves" d="M3,1 A4 4 1 0 0 3,7 
                     M5,2.5 A2 2 1 0 0 5,5.5
                     M9,2.5 A2 2 0 0 1 9,5.5
                     M11,1 A4 4 0 0 1 11,7" style="fill:none;stroke:black;stroke-width:1;"/>
  <path id="tower" d="M6,6 L8,6
                     M6,6 L2,26 10,16 5,11
                     M8,6 L12,26 4,16 9,11" style="fill:none;stroke:black;stroke-width:0.5;"/>
  
  <circle cx="7" cy="4" r="1" style="fill:black;stroke:none;"/>
  
</svg>